<?xml version="1.0" encoding="UTF-8" standalone="no"?>
<!-- Created with Inkscape (http://www.inkscape.org/) -->

<svg
   width="103.42497mm"
   height="101.52998mm"
   viewBox="0 0 103.42497 101.52998"
   version="1.1"
   id="svg5"
   xml:space="preserve"
   inkscape:version="1.2.2 (732a01da63, 2022-12-09, custom)"
   sodipodi:docname="qrschool"
   xmlns:inkscape="http://www.inkscape.org/namespaces/inkscape"
   xmlns:sodipodi="http://sodipodi.sourceforge.net/DTD/sodipodi-0.dtd"
   xmlns="http://www.w3.org/2000/svg"
   xmlns:svg="http://www.w3.org/2000/svg"><sodipodi:namedview
     id="namedview7"
     pagecolor="#ffffff"
     bordercolor="#000000"
     borderopacity="0.25"
     inkscape:showpageshadow="2"
     inkscape:pageopacity="0.0"
     inkscape:pagecheckerboard="0"
     inkscape:deskcolor="#d1d1d1"
     inkscape:document-units="mm"
     showgrid="false"
     inkscape:zoom="0.77949635"
     inkscape:cx="440.66916"
     inkscape:cy="441.3106"
     inkscape:window-width="1920"
     inkscape:window-height="1043"
     inkscape:window-x="0"
     inkscape:window-y="0"
     inkscape:window-maximized="1"
     inkscape:current-layer="layer1" /><defs
     id="defs2" /><g
     inkscape:label="Layer 1"
     inkscape:groupmode="layer"
     id="layer1"
     transform="translate(-21.510247,-10.466266)"><ellipse
       style="fill:#ffd05b;stroke-width:0.201697"
       cx="73.222733"
       cy="61.220608"
       id="circle79"
       rx="51.712486"
       ry="50.754341" /><g
       id="g362"
       transform="matrix(0.71611975,0,0,0.83882184,60.566134,20.638166)"><polygon
         style="fill:#f1543f"
         points="408,121.6 100,121.6 63.6,192.8 444.4,192.8 "
         id="polygon83"
         transform="matrix(0.17051492,0,0,0.17339178,0.65950511,0.33666847)" /><rect
         x="15.323789"
         y="33.766605"
         style="fill:#e6e9ee;stroke-width:0.171947"
         width="56.815575"
         height="35.857422"
         id="rect85" /><rect
         x="31.761425"
         y="26.48415"
         style="fill:#ffffff;stroke-width:0.171947"
         width="23.940294"
         height="43.139874"
         id="rect87" /><polygon
         style="fill:#ff7058"
         points="252.8,66 151.6,160.4 354,160.4 "
         id="polygon89"
         transform="matrix(0.17051492,0,0,0.17339178,0.65950511,0.33666847)" /><g
         id="g115"
         transform="matrix(0.17051492,0,0,0.17339178,0.65950511,0.33666847)">
	<rect
   x="338"
   y="212.8"
   style="fill:#acb3ba"
   width="23.200001"
   height="23.200001"
   id="rect91" />
	<rect
   x="376"
   y="212.8"
   style="fill:#acb3ba"
   width="23.200001"
   height="23.200001"
   id="rect93" />
	<rect
   x="338"
   y="258"
   style="fill:#acb3ba"
   width="23.200001"
   height="23.200001"
   id="rect95" />
	<rect
   x="376"
   y="258"
   style="fill:#acb3ba"
   width="23.200001"
   height="23.200001"
   id="rect97" />
	<rect
   x="338"
   y="303.20001"
   style="fill:#acb3ba"
   width="23.200001"
   height="23.200001"
   id="rect99" />
	<rect
   x="376"
   y="303.20001"
   style="fill:#acb3ba"
   width="23.200001"
   height="23.200001"
   id="rect101" />
	<rect
   x="104.4"
   y="212.8"
   style="fill:#acb3ba"
   width="23.200001"
   height="23.200001"
   id="rect103" />
	<rect
   x="142.39999"
   y="212.8"
   style="fill:#acb3ba"
   width="23.200001"
   height="23.200001"
   id="rect105" />
	<rect
   x="104.4"
   y="258"
   style="fill:#acb3ba"
   width="23.200001"
   height="23.200001"
   id="rect107" />
	<rect
   x="142.39999"
   y="258"
   style="fill:#acb3ba"
   width="23.200001"
   height="23.200001"
   id="rect109" />
	<rect
   x="104.4"
   y="303.20001"
   style="fill:#acb3ba"
   width="23.200001"
   height="23.200001"
   id="rect111" />
	<rect
   x="142.39999"
   y="303.20001"
   style="fill:#acb3ba"
   width="23.200001"
   height="23.200001"
   id="rect113" />
</g><g
         id="g143"
         transform="matrix(0.17051492,0,0,0.17339178,0.65950511,0.33666847)">
	<rect
   x="198"
   y="185.60001"
   style="fill:#e6e9ee"
   width="24.799999"
   height="24.799999"
   id="rect117" />
	<rect
   x="240.39999"
   y="185.60001"
   style="fill:#e6e9ee"
   width="24.799999"
   height="24.799999"
   id="rect119" />
	<rect
   x="282.79999"
   y="185.60001"
   style="fill:#e6e9ee"
   width="24.799999"
   height="24.799999"
   id="rect121" />
	<rect
   x="198"
   y="229.60001"
   style="fill:#e6e9ee"
   width="24.799999"
   height="24.799999"
   id="rect123" />
	<rect
   x="240.39999"
   y="229.60001"
   style="fill:#e6e9ee"
   width="24.799999"
   height="24.799999"
   id="rect125" />
	<rect
   x="282.79999"
   y="229.60001"
   style="fill:#e6e9ee"
   width="24.799999"
   height="24.799999"
   id="rect127" />
	<rect
   x="198"
   y="273.60001"
   style="fill:#e6e9ee"
   width="24.799999"
   height="24.799999"
   id="rect129" />
	<rect
   x="240.39999"
   y="273.60001"
   style="fill:#e6e9ee"
   width="24.799999"
   height="24.799999"
   id="rect131" />
	<rect
   x="282.79999"
   y="273.60001"
   style="fill:#e6e9ee"
   width="24.799999"
   height="24.799999"
   id="rect133" />
	<rect
   x="198"
   y="317.60001"
   style="fill:#e6e9ee"
   width="24.799999"
   height="24.799999"
   id="rect135" />
	<rect
   x="240.39999"
   y="317.60001"
   style="fill:#e6e9ee"
   width="24.799999"
   height="24.799999"
   id="rect137" />
	<rect
   x="282.79999"
   y="317.60001"
   style="fill:#e6e9ee"
   width="24.799999"
   height="24.799999"
   id="rect139" />
	<circle
   style="fill:#e6e9ee"
   cx="254"
   cy="121.6"
   r="28"
   id="circle141" />
</g><ellipse
         style="fill:#ffffff;stroke-width:0.171947"
         cx="43.970295"
         cy="21.421108"
         id="circle145"
         rx="3.6831224"
         ry="3.7452626" /></g><g
       style="fill:#000000"
       id="g601"
       transform="matrix(0.60012065,0,0,0.61925934,29.407546,37.293492)"><g
         id="g522">
	<rect
   x="38"
   y="23"
   width="2"
   height="5"
   id="rect380" />
	<rect
   x="42"
   y="23"
   width="2"
   height="5"
   id="rect382" />
	<rect
   x="38"
   y="30"
   width="2"
   height="2"
   id="rect384" />
	<rect
   x="42"
   y="30"
   width="2"
   height="2"
   id="rect386" />
	<rect
   x="31"
   y="34"
   width="2"
   height="2"
   id="rect388" />
	<rect
   x="26"
   y="54"
   width="2"
   height="2"
   id="rect390" />
	<rect
   x="42"
   y="34"
   width="2"
   height="2"
   id="rect392" />
	<rect
   x="38"
   y="38"
   width="2"
   height="2"
   id="rect394" />
	<rect
   x="42"
   y="38"
   width="2"
   height="2"
   id="rect396" />
	<path
   d="M 2,2 H 5 V 0 H 1 C 0.448,0 0,0.448 0,1 v 4 h 2 z"
   id="path398" />
	<path
   d="m 63,0 h -4 v 2 h 3 v 3 h 2 V 1 C 64,0.448 63.552,0 63,0 Z"
   id="path400" />
	<path
   d="M 2,59 H 0 v 4 c 0,0.552 0.448,1 1,1 H 5 V 62 H 2 Z"
   id="path402" />
	<path
   d="m 62,62 h -3 v 2 h 4 c 0.552,0 1,-0.448 1,-1 v -4 h -2 z"
   id="path404" />
	<path
   d="m 4,5 v 12 c 0,0.552 0.448,1 1,1 h 12 c 0.552,0 1,-0.448 1,-1 V 5 C 18,4.448 17.552,4 17,4 H 5 C 4.448,4 4,4.448 4,5 Z M 6,6 H 16 V 16 H 6 Z"
   id="path406" />
	<path
   d="M 13,8 H 9 C 8.448,8 8,8.448 8,9 v 4 c 0,0.552 0.448,1 1,1 h 4 c 0.552,0 1,-0.448 1,-1 V 9 C 14,8.448 13.552,8 13,8 Z m -1,4 h -2 v -2 h 2 z"
   id="path408" />
	<path
   d="m 47,18 h 12 c 0.552,0 1,-0.448 1,-1 V 5 C 60,4.448 59.552,4 59,4 H 47 c -0.552,0 -1,0.448 -1,1 v 12 c 0,0.552 0.448,1 1,1 z M 48,6 H 58 V 16 H 48 Z"
   id="path410" />
	<path
   d="m 55,8 h -4 c -0.552,0 -1,0.448 -1,1 v 4 c 0,0.552 0.448,1 1,1 h 4 c 0.552,0 1,-0.448 1,-1 V 9 C 56,8.448 55.552,8 55,8 Z m -1,4 h -2 v -2 h 2 z"
   id="path412" />
	<path
   d="M 17,46 H 5 c -0.552,0 -1,0.448 -1,1 v 12 c 0,0.552 0.448,1 1,1 h 12 c 0.552,0 1,-0.448 1,-1 V 47 c 0,-0.552 -0.448,-1 -1,-1 z M 16,58 H 6 V 48 h 10 z"
   id="path414" />
	<path
   d="m 9,56 h 4 c 0.552,0 1,-0.448 1,-1 v -4 c 0,-0.552 -0.448,-1 -1,-1 H 9 c -0.552,0 -1,0.448 -1,1 v 4 c 0,0.552 0.448,1 1,1 z m 1,-4 h 2 v 2 h -2 z"
   id="path416" />
	<path
   d="M 44,19 H 37 V 7 h -2 v 13 c 0,0.552 0.448,1 1,1 h 8 z"
   id="path418" />
	<rect
   x="22"
   y="12"
   width="7"
   height="2"
   id="rect420" />
	<rect
   x="26"
   y="8"
   width="7"
   height="2"
   id="rect422" />
	<rect
   x="4"
   y="19"
   width="2"
   height="9"
   id="rect424" />
	<path
   d="M 18,25 H 8 v 2 h 9 v 4 h 2 v -5 c 0,-0.552 -0.448,-1 -1,-1 z"
   id="path426" />
	<rect
   x="9"
   y="20"
   width="2"
   height="2"
   id="rect428" />
	<rect
   x="21"
   y="18"
   width="2"
   height="8"
   id="rect430" />
	<rect
   x="21"
   y="28"
   width="9"
   height="2"
   id="rect432" />
	<path
   d="m 61,29 h -2 v 10 h -3 v 2 h 4 c 0.552,0 1,-0.448 1,-1 z"
   id="path434" />
	<rect
   x="26"
   y="18"
   width="2"
   height="2"
   id="rect436" />
	<rect
   x="4"
   y="33"
   width="2"
   height="8"
   id="rect438" />
	<rect
   x="4"
   y="42"
   width="9"
   height="2"
   id="rect440" />
	<path
   d="m 50,28 h 2 v -4 c 0,-0.552 -0.448,-1 -1,-1 h -5 v 2 h 4 z"
   id="path442" />
	<rect
   x="9"
   y="33"
   width="2"
   height="2"
   id="rect444" />
	<rect
   x="20"
   y="32"
   width="2"
   height="8"
   id="rect446" />
	<rect
   x="20"
   y="42"
   width="9"
   height="2"
   id="rect448" />
	<rect
   x="8"
   y="38"
   width="9"
   height="2"
   id="rect450" />
	<rect
   x="21"
   y="52"
   width="2"
   height="4"
   id="rect452" />
	<rect
   x="20"
   y="48"
   width="9"
   height="2"
   id="rect454" />
	<path
   d="m 36,44 v -5 c 0,-0.552 -0.448,-1 -1,-1 H 25 v 2 h 9 v 4 z"
   id="path456" />
	<rect
   x="26"
   y="32"
   width="2"
   height="2"
   id="rect458" />
	<rect
   x="15"
   y="34"
   width="2"
   height="2"
   id="rect460" />
	<rect
   x="59"
   y="53"
   width="2"
   height="7"
   id="rect462" />
	<rect
   x="54"
   y="58"
   width="3"
   height="2"
   id="rect464" />
	<rect
   x="54"
   y="52"
   width="2"
   height="4"
   id="rect466" />
	<path
   d="m 61,44 c 0,-0.552 -0.448,-1 -1,-1 H 49 v 2 h 10 v 6 h 2 z"
   id="path468" />
	<path
   d="m 48,56 v -5 c 0,-0.552 -0.448,-1 -1,-1 H 36 v 2 h 10 v 4 z"
   id="path470" />
	<rect
   x="50"
   y="47"
   width="7"
   height="2"
   id="rect472" />
	<rect
   x="20"
   y="58"
   width="7"
   height="2"
   id="rect474" />
	<rect
   x="30"
   y="51"
   width="2"
   height="9"
   id="rect476" />
	<rect
   x="32"
   y="46"
   width="4"
   height="2"
   id="rect478" />
	<path
   d="m 47,36 h 5 v -2 h -4 v -6 h -2 v 7 c 0,0.552 0.448,1 1,1 z"
   id="path480" />
	<rect
   x="50"
   y="30"
   width="5"
   height="2"
   id="rect482" />
	<rect
   x="54"
   y="20"
   width="3"
   height="2"
   id="rect484" />
	<rect
   x="59"
   y="20"
   width="2"
   height="5"
   id="rect486" />
	<rect
   x="54"
   y="25"
   width="2"
   height="2"
   id="rect488" />
	<path
   d="m 39,17 h 4 c 0.552,0 1,-0.448 1,-1 V 3 h -2 v 12 h -3 z"
   id="path490" />
	<path
   d="M 24,5 H 39 V 3 H 23 c -0.552,0 -1,0.448 -1,1 v 5 h 2 z"
   id="path492" />
	<path
   d="m 25,24 h 7 c 0.552,0 1,-0.448 1,-1 v -8 h -2 v 7 h -6 z"
   id="path494" />
	<rect
   x="34"
   y="23"
   width="2"
   height="4"
   id="rect496" />
	<rect
   x="36"
   y="54"
   width="7"
   height="2"
   id="rect498" />
	<rect
   x="36"
   y="58"
   width="9"
   height="2"
   id="rect500" />
	<path
   d="m 50,58 h -2 v 2 h 3 c 0.552,0 1,-0.448 1,-1 v -8 h -2 z"
   id="path502" />
	<rect
   x="16"
   y="42"
   width="2"
   height="2"
   id="rect504" />
	<rect
   x="39"
   y="42"
   width="4"
   height="2"
   id="rect506" />
	<rect
   x="46"
   y="38"
   width="2"
   height="3"
   id="rect508" />
	<rect
   x="45"
   y="43"
   width="2"
   height="2"
   id="rect510" />
	<rect
   x="39"
   y="46"
   width="3"
   height="2"
   id="rect512" />
	<rect
   x="50"
   y="38"
   width="2"
   height="2"
   id="rect514" />
	<rect
   x="54"
   y="34"
   width="3"
   height="2"
   id="rect516" />
	<rect
   x="35"
   y="34"
   width="5"
   height="2"
   id="rect518" />
	<rect
   x="34"
   y="29"
   width="2"
   height="3"
   id="rect520" />
</g></g><text
       xml:space="preserve"
       style="font-size:3.175px;fill:#d3bc5f;stroke-width:0.264583"
       x="46.497738"
       y="86.698082"
       id="text657"><tspan
         sodipodi:role="line"
         id="tspan655"
         style="stroke-width:0.264583"
         x="46.497738"
         y="86.698082">_</tspan></text><path
       style="fill:#17d43b;fill-opacity:1;stroke-width:0.251103"
       d="m 25.857099,82.016197 c 10.487185,18.142923 27.81384,29.980053 47.420313,29.980053 19.60648,0 36.933128,-11.83713 47.420318,-29.980053 z"
       id="path719"
       inkscape:highlight-color="#616161" /></g></svg>
